<svg xmlns="http://www.w3.org/2000/svg" width="145" height="137" viewBox="0 0 145 137" fill="none">
    <path
        d="M0 129C0 133.418 3.58172 137 8 137C12.4183 137 16 133.418 16 129H0ZM70 129C70 133.418 73.5817 137 78 137C82.4183 137 86 133.418 86 129H70ZM8 66L0.165917 64.3792L0 65.1811V66H8ZM22.4428 16H78V0H22.4428V16ZM78 16H134V0H78V16ZM129 11V63H145V11H129ZM134 58H92V74H134V58ZM16 129V66H0V129H16ZM15.8341 67.6208L27.3391 12.013L11.671 8.77134L0.165917 64.3792L15.8341 67.6208ZM70 8V66H86V8H70ZM70 66V129H86V66H70ZM8 74H78V58H8V74ZM129 63C129 60.2386 131.239 58 134 58V74C140.075 74 145 69.0751 145 63H129ZM134 16C131.239 16 129 13.7614 129 11H145C145 4.92486 140.075 0 134 0V16ZM22.4428 0C17.2267 0 12.7278 3.6634 11.671 8.77134L27.3391 12.013C26.8588 14.3348 24.8138 16 22.4428 16V0Z"
        fill="#8d8d8d" />
</svg>